<svg xmlns="http://www.w3.org/2000/svg" viewBox="0 0 48 48" fill="none">
  <!-- bulb body -->
  <path d="M18 28C18 28 16 25 16 20C16 15.6 19.6 12 24 12C28.4 12 32 15.6 32 20C32 25 30 28 30 28" stroke="#E8553D" stroke-width="2" stroke-linecap="round"/>
  <!-- base -->
  <rect x="18" y="28" width="12" height="3" rx="1" fill="#E8553D" opacity="0.2"/>
  <rect x="19" y="32" width="10" height="2" rx="1" fill="#E8553D" opacity="0.15"/>
  <path d="M20 35 Q24 38 28 35" stroke="#E8553D" stroke-width="1.5" stroke-linecap="round" fill="none"/>
  <!-- light rays -->
  <line x1="24" y1="6" x2="24" y2="9" stroke="#E8553D" stroke-width="2" stroke-linecap="round" opacity="0.6"/>
  <line x1="10" y1="20" x2="13" y2="20" stroke="#E8553D" stroke-width="2" stroke-linecap="round" opacity="0.6"/>
  <line x1="35" y1="20" x2="38" y2="20" stroke="#E8553D" stroke-width="2" stroke-linecap="round" opacity="0.6"/>
  <line x1="13" y1="11" x2="15.5" y2="13.5" stroke="#E8553D" stroke-width="2" stroke-linecap="round" opacity="0.4"/>
  <line x1="35" y1="11" x2="32.5" y2="13.5" stroke="#E8553D" stroke-width="2" stroke-linecap="round" opacity="0.4"/>
  <!-- inner glow -->
  <circle cx="24" cy="20" r="4" fill="#E8553D" opacity="0.15"/>
  <circle cx="24" cy="20" r="2" fill="#E8553D" opacity="0.3"/>
</svg>
