<svg xmlns="http://www.w3.org/2000/svg" viewBox="0 0 48 48" fill="none">
  <rect x="10" y="10" width="28" height="28" rx="6" stroke="#2A9D8F" stroke-width="2"/>
  <rect x="16" y="16" width="16" height="16" rx="3" fill="#2A9D8F" opacity="0.12"/>
  <circle cx="24" cy="24" r="4" fill="#2A9D8F"/>
  <!-- pins -->
  <line x1="18" y1="10" x2="18" y2="5" stroke="#2A9D8F" stroke-width="2" stroke-linecap="round"/>
  <line x1="24" y1="10" x2="24" y2="5" stroke="#2A9D8F" stroke-width="2" stroke-linecap="round"/>
  <line x1="30" y1="10" x2="30" y2="5" stroke="#2A9D8F" stroke-width="2" stroke-linecap="round"/>
  <line x1="18" y1="38" x2="18" y2="43" stroke="#2A9D8F" stroke-width="2" stroke-linecap="round"/>
  <line x1="24" y1="38" x2="24" y2="43" stroke="#2A9D8F" stroke-width="2" stroke-linecap="round"/>
  <line x1="30" y1="38" x2="30" y2="43" stroke="#2A9D8F" stroke-width="2" stroke-linecap="round"/>
  <line x1="10" y1="18" x2="5" y2="18" stroke="#2A9D8F" stroke-width="2" stroke-linecap="round"/>
  <line x1="10" y1="24" x2="5" y2="24" stroke="#2A9D8F" stroke-width="2" stroke-linecap="round"/>
  <line x1="10" y1="30" x2="5" y2="30" stroke="#2A9D8F" stroke-width="2" stroke-linecap="round"/>
  <line x1="38" y1="18" x2="43" y2="18" stroke="#2A9D8F" stroke-width="2" stroke-linecap="round"/>
  <line x1="38" y1="24" x2="43" y2="24" stroke="#2A9D8F" stroke-width="2" stroke-linecap="round"/>
  <line x1="38" y1="30" x2="43" y2="30" stroke="#2A9D8F" stroke-width="2" stroke-linecap="round"/>
</svg>
